<svg version="1.1" id="Layer_1" xmlns="http://www.w3.org/2000/svg" xmlns:xlink="http://www.w3.org/1999/xlink" x="0px" y="0px"
	 width="100%" viewBox="0 0 3735 3651" enable-background="new 0 0 3735 3651" xml:space="preserve">
<path fill="#232323" opacity="1.000000" stroke="none" 
	d="
M3738.000000,4.000000 
	C3738.000000,1219.408569 3738.000000,2434.817139 3737.098145,3651.112793 
	C2496.716553,3652.000000 1257.236816,3652.000244 17.757061,3651.986816 
	C13.431665,3651.986816 9.106272,3651.785645 4.623272,3650.775635 
	C4.413269,3646.207520 4.314959,3642.542236 4.314939,3638.876953 
	C4.308368,2430.903076 4.308822,1222.929077 4.295770,14.955060 
	C4.295723,10.636705 4.102828,6.318353 4.000000,2.000000 
	C4.888916,2.000000 5.777832,2.000000 7.726967,2.679566 
	C12.747805,3.572717 16.708418,3.973403 20.669041,3.973489 
	C1259.779419,4.000521 2498.889648,3.999961 3738.000000,4.000000 
M1462.484741,2287.322021 
	C1474.939697,2299.099365 1486.903320,2311.460693 1499.995483,2322.480957 
	C1511.801880,2332.419189 1524.691650,2341.145020 1539.735596,2347.796875 
	C1537.870728,2353.051758 1535.805054,2358.245361 1534.176758,2363.572510 
	C1527.998291,2383.785645 1522.220825,2404.124756 1515.803833,2424.260498 
	C1508.281250,2447.865967 1500.041138,2471.242920 1492.502563,2494.843506 
	C1486.476807,2513.708008 1481.303223,2532.844482 1475.268677,2551.706055 
	C1467.213135,2576.883789 1458.494751,2601.849121 1450.431885,2627.024902 
	C1444.291504,2646.197510 1438.977661,2665.634766 1432.846558,2684.810791 
	C1424.897705,2709.671631 1416.299561,2734.324951 1408.365601,2759.190430 
	C1402.447754,2777.737061 1397.316284,2796.533203 1391.517334,2815.119141 
	C1383.499023,2840.819580 1375.060547,2866.389160 1367.032837,2892.086670 
	C1360.816650,2911.985107 1355.913208,2932.133301 1356.128906,2953.235107 
	C1356.303711,2970.330566 1357.131104,2987.139893 1361.348389,3003.987061 
	C1376.959229,3066.348389 1412.543457,3112.903564 1469.381348,3142.819336 
	C1491.421265,3154.419922 1514.893921,3162.208008 1541.049438,3164.716797 
	C1547.539795,3165.044189 1554.030273,3165.371582 1562.760376,3165.912109 
	C1565.006348,3165.822021 1567.252197,3165.731934 1570.884277,3166.113770 
	C1576.594238,3165.471436 1582.304199,3164.829102 1589.946045,3164.114014 
	C1593.807739,3163.501953 1597.705933,3163.061523 1601.525879,3162.252441 
	C1682.120239,3145.183838 1737.186279,3098.147461 1762.311646,3019.675781 
	C1863.471069,2703.734131 1963.720459,2387.501221 2064.305664,2071.375732 
	C2073.726074,2041.768677 2083.108398,2012.149414 2092.576904,1982.557739 
	C2099.742920,1960.161499 2107.017822,1937.800171 2115.563477,1915.846558 
	C2118.567383,1918.437622 2121.748047,1920.851685 2124.548828,1923.646240 
	C2174.324707,1973.310181 2224.048096,2023.026367 2273.811035,2072.703125 
	C2276.389648,2075.277588 2279.218506,2077.601562 2282.528320,2081.233398 
	C2307.515137,2106.303711 2332.484375,2131.391357 2357.504150,2156.428711 
	C2362.163818,2161.091553 2367.025879,2165.551758 2372.492920,2171.245361 
	C2400.337891,2199.148926 2428.170410,2227.064941 2456.059326,2254.924316 
	C2457.668701,2256.531982 2459.736816,2257.680176 2461.993896,2260.203369 
	C2476.087646,2274.173828 2490.181641,2288.144531 2504.074463,2303.493408 
	C2501.544189,2306.520264 2499.229492,2309.762695 2496.452393,2312.542969 
	C2421.659912,2387.414551 2346.815918,2462.234619 2272.005615,2537.088379 
	C2269.198730,2539.896973 2266.643311,2542.957031 2262.778809,2546.509766 
	C2261.087158,2548.115479 2259.358154,2549.683838 2257.709229,2551.332520 
	C2174.068359,2634.965332 2090.417236,2718.587891 2006.838745,2802.282715 
	C2001.437866,2807.691162 1996.274902,2813.406006 1991.554077,2819.412842 
	C1952.914795,2868.576660 1937.445312,2924.341553 1946.733887,2986.107422 
	C1954.711670,3039.157715 1979.447144,3083.616943 2020.931763,3118.054199 
	C2072.150635,3160.572021 2131.175537,3175.859619 2196.482666,3165.059570 
	C2241.817383,3157.562744 2280.606934,3136.295410 2312.935791,3103.566895 
	C2325.322754,3091.026855 2337.230713,3078.013428 2349.626953,3065.482910 
	C2371.653320,3043.218262 2393.879395,3021.151123 2416.037354,2999.017090 
	C2420.254639,2994.804199 2424.545410,2990.665039 2430.005615,2985.980469 
	C2432.212891,2983.965088 2434.503906,2982.033447 2436.615479,2979.922363 
	C2540.454346,2876.125000 2644.281738,2772.316162 2748.075684,2668.474121 
	C2750.397705,2666.151123 2752.320068,2663.428467 2755.569092,2660.122070 
	C2758.536621,2657.449707 2761.675293,2654.942383 2764.440186,2652.074463 
	C2773.667480,2642.503906 2782.525879,2632.567871 2791.957764,2623.207031 
	C2807.302246,2607.978027 2823.168945,2593.275146 2838.494629,2578.028320 
	C2879.586670,2537.148193 2920.999756,2496.573486 2961.366699,2454.986084 
	C3005.953125,2409.052002 3028.081543,2354.069580 3024.374756,2289.393555 
	C3022.788086,2261.706299 3015.775879,2235.621826 3003.520020,2210.844238 
	C2992.626465,2188.820801 2977.948242,2169.526123 2960.636719,2152.249756 
	C2906.644043,2098.366455 2852.489990,2044.645386 2798.451660,1990.808228 
	C2764.704590,1957.187134 2731.073975,1923.448853 2697.353271,1889.801514 
	C2666.935791,1859.450562 2636.466797,1829.151611 2605.648926,1798.111084 
	C2604.775879,1797.398804 2603.903076,1796.686523 2602.195801,1794.981201 
	C2601.464600,1794.544922 2600.733643,1794.108643 2599.725342,1792.370117 
	C2594.157471,1786.805054 2588.630371,1781.198120 2583.012939,1775.683594 
	C2570.752686,1763.647461 2558.446289,1751.658447 2545.499023,1738.513550 
	C2526.745361,1719.621704 2508.046875,1700.674194 2489.218018,1681.857544 
	C2476.987061,1669.634644 2464.565430,1657.602539 2451.551758,1644.367554 
	C2427.247559,1619.612549 2402.957764,1594.843384 2378.613525,1570.127686 
	C2376.552979,1568.035645 2374.129639,1566.300415 2371.249756,1563.203613 
	C2349.352539,1541.148682 2327.606201,1518.940674 2305.456299,1497.142456 
	C2299.629395,1491.408325 2292.553955,1486.943237 2285.311279,1480.784912 
	C2276.272949,1475.147583 2267.234375,1469.510376 2258.073486,1462.336548 
	C2259.449707,1457.983643 2260.817383,1453.628052 2262.203125,1449.278198 
	C2275.121094,1408.728394 2288.058838,1368.184570 2300.959717,1327.629028 
	C2345.405518,1187.908203 2389.794434,1048.169189 2434.311768,908.471191 
	C2444.294189,877.146179 2446.560059,845.256287 2441.430664,812.947998 
	C2439.046387,797.931213 2434.364258,783.523682 2428.908691,769.122986 
	C2419.768066,744.993652 2406.407715,723.953491 2389.281250,705.169128 
	C2355.563721,668.187500 2313.396973,647.045166 2262.550537,639.181824 
	C2245.389404,639.057068 2228.227051,638.770691 2211.068604,638.935547 
	C2207.365479,638.971130 2203.677734,640.632019 2198.352539,641.965088 
	C2193.435547,642.678467 2188.349609,642.813049 2183.626953,644.192078 
	C2110.134277,665.652100 2061.588623,713.400818 2036.424194,785.204285 
	C2030.095581,803.262268 2025.501709,821.921326 2019.787231,840.203125 
	C2010.418579,870.175659 2000.782715,900.064880 1991.263550,929.990479 
	C1982.047485,958.963562 1972.838013,987.938843 1963.622803,1016.912231 
	C1954.175537,1046.615356 1944.725098,1076.317383 1935.275757,1106.019775 
	C1926.028564,1135.086304 1916.785889,1164.154175 1907.532715,1193.218750 
	C1851.927368,1367.877686 1796.298462,1542.529175 1740.723633,1717.197998 
	C1721.559570,1777.429810 1702.528076,1837.703857 1682.084351,1898.022949 
	C1678.857544,1895.699829 1675.630737,1893.376831 1671.855225,1889.895508 
	C1653.038452,1871.011597 1634.262817,1852.086548 1615.384644,1833.264160 
	C1607.844360,1825.746338 1600.077759,1818.455200 1591.865845,1809.900879 
	C1562.406982,1780.369507 1532.955200,1750.831177 1503.472412,1721.323853 
	C1501.614258,1719.463989 1499.514160,1717.846069 1496.990845,1714.940430 
	C1460.904419,1678.799438 1424.820923,1642.655518 1388.714722,1606.534058 
	C1387.791870,1605.610718 1386.621704,1604.934448 1385.023315,1602.963745 
	C1369.364990,1587.227539 1353.757446,1571.440430 1338.034668,1555.768799 
	C1320.673584,1538.464355 1303.206787,1521.265747 1286.270264,1502.745728 
	C1294.841064,1493.803345 1303.411865,1484.860962 1313.198364,1475.386719 
	C1327.080200,1461.547485 1341.017822,1447.763672 1354.825073,1433.850342 
	C1364.635986,1423.964111 1374.271118,1413.903076 1385.199463,1403.386475 
	C1410.947388,1377.676758 1436.717163,1351.988647 1462.422485,1326.236450 
	C1466.813843,1321.837036 1470.930054,1317.162964 1476.341797,1312.083496 
	C1478.976562,1309.554810 1481.665405,1307.079956 1484.237549,1304.489014 
	C1513.934570,1274.575195 1543.613892,1244.643921 1574.375366,1214.083862 
	C1608.350708,1180.172729 1642.328125,1146.263916 1676.285400,1112.334839 
	C1676.969971,1111.650757 1677.419312,1110.731323 1679.186157,1109.375000 
	C1712.434814,1076.180054 1745.729736,1043.031128 1778.893433,1009.751526 
	C1785.469604,1003.152344 1791.972168,996.394775 1797.779175,989.127319 
	C1838.302368,938.412170 1853.973511,880.638550 1842.928467,816.824463 
	C1831.052002,748.206055 1792.981445,697.335938 1732.160889,663.695312 
	C1714.651855,654.010864 1696.125000,646.522339 1675.078979,643.524841 
	C1674.430176,643.604614 1673.781372,643.684448 1672.385986,642.831970 
	C1671.620483,642.693481 1670.855103,642.554993 1668.446167,641.999390 
	C1646.457397,637.714783 1624.285767,637.428101 1602.255249,640.717529 
	C1589.942505,642.555908 1577.949341,646.535767 1564.286377,649.694153 
	C1525.905884,661.751526 1494.415771,684.163696 1466.577759,714.416687 
	C1439.452881,741.583435 1412.317139,768.739319 1385.220947,795.934753 
	C1382.672852,798.492126 1380.374268,801.298279 1376.758057,804.556152 
	C1360.041626,821.212158 1343.282349,837.825623 1326.630005,854.545349 
	C1320.083008,861.118713 1313.774658,867.929749 1306.149414,875.316956 
	C1290.931519,890.425293 1275.664673,905.484619 1260.517700,920.663635 
	C1253.546631,927.649292 1246.810547,934.869324 1238.760132,942.543945 
	C1231.005859,950.250061 1223.204956,957.909790 1215.507080,965.671875 
	C1198.957520,982.359558 1182.461182,999.099976 1164.680298,1016.300781 
	C1136.353149,1044.675659 1108.020142,1073.044800 1079.716431,1101.442993 
	C1078.336792,1102.827271 1077.213379,1104.466919 1074.757935,1106.538940 
	C1064.673950,1116.579224 1054.529175,1126.559326 1044.522339,1136.675903 
	C1033.607056,1147.711060 1022.819580,1158.872681 1010.756226,1170.521118 
	C1005.505310,1175.624023 1000.185181,1180.657837 995.014099,1185.840332 
	C939.501465,1241.474976 883.989807,1297.110962 828.553772,1352.822021 
	C823.396301,1358.005127 818.439453,1363.455444 813.930847,1369.206055 
	C772.314209,1422.286987 756.791748,1481.971802 770.225342,1548.328491 
	C778.588013,1589.637085 799.403931,1624.463013 829.108459,1654.115723 
	C873.419739,1698.349609 917.713379,1742.601440 962.067688,1786.792358 
	C979.746216,1804.405762 997.566772,1821.876831 1015.929199,1840.499390 
	C1021.290588,1845.917358 1026.593506,1851.394653 1032.024536,1856.741943 
	C1047.363892,1871.844971 1062.755737,1886.894409 1078.634155,1903.189941 
	C1113.165161,1937.645752 1147.684326,1972.113403 1182.265015,2006.519287 
	C1183.823730,2008.069824 1185.939087,2009.060913 1187.890259,2010.167847 
	C1187.890259,2010.167847 1187.756836,2010.057251 1187.496704,2011.170898 
	C1187.738037,2011.465942 1187.979492,2011.760864 1188.733643,2013.257446 
	C1202.523438,2026.692749 1216.313232,2040.128174 1230.725464,2054.788086 
	C1233.134399,2057.503662 1235.407715,2060.355225 1237.973511,2062.913330 
	C1262.612549,2087.479736 1287.289795,2112.007324 1311.991333,2136.510742 
	C1314.560791,2139.059570 1317.357178,2141.379883 1320.573364,2145.054688 
	C1331.716797,2156.409912 1342.739624,2167.886963 1354.035156,2179.089111 
	C1367.429565,2192.373047 1381.058838,2205.420166 1395.235229,2219.812012 
	C1405.641968,2230.424805 1415.937378,2241.150146 1426.485352,2251.620605 
	C1438.186646,2263.235596 1450.118652,2274.618408 1462.484741,2287.322021 
z"/>
<path fill="#474747" opacity="1.000000" stroke="none" 
	d="
M4.780875,3651.678467 
	C9.106272,3651.785645 13.431665,3651.986816 17.757061,3651.986816 
	C1257.236816,3652.000244 2496.716553,3652.000000 3737.098145,3652.000000 
	C3737.666748,3652.666504 3737.368652,3653.887695 3736.994873,3653.911133 
	C3734.339600,3654.077881 3731.668457,3654.000000 3729.002441,3654.000000 
	C2487.936279,3654.000000 1246.869873,3654.000000 5.097921,3653.419922 
	C4.521774,3652.452637 4.651324,3652.065430 4.780875,3651.678467 
z"/>
<path fill="#474747" opacity="1.000000" stroke="none" 
	d="
M3738.000000,3.000000 
	C2498.889648,3.999961 1259.779419,4.000521 20.669041,3.973489 
	C16.708418,3.973403 12.747805,3.572717 8.393593,2.679566 
	C1251.333374,2.000000 2494.666748,2.000000 3738.000000,3.000000 
z"/>
<path fill="#6C6C6C" opacity="1.000000" stroke="none" 
	d="
M4.623271,3650.775635 
	C4.651324,3652.065430 4.521774,3652.452637 4.196126,3653.419922 
	C3.333362,3653.666504 2.112414,3653.368164 2.088949,3652.994385 
	C1.922029,3650.338135 2.000000,3647.666748 2.000000,3645.000000 
	C2.000000,2430.666748 2.000000,1216.333374 3.000000,2.000000 
	C4.102828,6.318353 4.295723,10.636705 4.295770,14.955060 
	C4.308822,1222.929077 4.308368,2430.903076 4.314939,3638.876953 
	C4.314959,3642.542236 4.413269,3646.207520 4.623271,3650.775635 
z"/>
<path fill="#FFFFFF" opacity="1.000000" stroke="none" 
	d="
M2264.027344,639.916870 
	C2313.396973,647.045166 2355.563721,668.187500 2389.281250,705.169128 
	C2406.407715,723.953491 2419.768066,744.993652 2428.908691,769.122986 
	C2434.364258,783.523682 2439.046387,797.931213 2441.430664,812.947998 
	C2446.560059,845.256287 2444.294189,877.146179 2434.311768,908.471191 
	C2389.794434,1048.169189 2345.405518,1187.908203 2300.959717,1327.629028 
	C2288.058838,1368.184570 2275.121094,1408.728394 2262.203125,1449.278198 
	C2260.817383,1453.628052 2259.449707,1457.983643 2257.721191,1463.731323 
	C2229.615479,1552.199463 2201.817383,1639.258301 2174.124268,1726.350830 
	C2154.092041,1789.352051 2134.199219,1852.397583 2114.244141,1915.423340 
	C2107.017822,1937.800171 2099.742920,1960.161499 2092.576904,1982.557739 
	C2083.108398,2012.149414 2073.726074,2041.768677 2064.305664,2071.375732 
	C1963.720459,2387.501221 1863.471069,2703.734131 1762.311646,3019.675781 
	C1737.186279,3098.147461 1682.120239,3145.183838 1601.525879,3162.252441 
	C1597.705933,3163.061523 1593.807739,3163.501953 1588.338623,3163.952637 
	C1580.986938,3164.407959 1575.242554,3165.024902 1569.498169,3165.641602 
	C1567.252197,3165.731934 1565.006348,3165.822021 1561.125244,3165.455566 
	C1552.990845,3164.713135 1546.491577,3164.426758 1539.992310,3164.140625 
	C1514.893921,3162.208008 1491.421265,3154.419922 1469.381348,3142.819336 
	C1412.543457,3112.903564 1376.959229,3066.348389 1361.348389,3003.987061 
	C1357.131104,2987.139893 1356.303711,2970.330566 1356.128906,2953.235107 
	C1355.913208,2932.133301 1360.816650,2911.985107 1367.032837,2892.086670 
	C1375.060547,2866.389160 1383.499023,2840.819580 1391.517334,2815.119141 
	C1397.316284,2796.533203 1402.447754,2777.737061 1408.365601,2759.190430 
	C1416.299561,2734.324951 1424.897705,2709.671631 1432.846558,2684.810791 
	C1438.977661,2665.634766 1444.291504,2646.197510 1450.431885,2627.024902 
	C1458.494751,2601.849121 1467.213135,2576.883789 1475.268677,2551.706055 
	C1481.303223,2532.844482 1486.476807,2513.708008 1492.502563,2494.843506 
	C1500.041138,2471.242920 1508.281250,2447.865967 1515.803833,2424.260498 
	C1522.220825,2404.124756 1527.998291,2383.785645 1534.176758,2363.572510 
	C1535.805054,2358.245361 1537.870728,2353.051758 1540.193359,2346.526855 
	C1540.952026,2344.666748 1541.342896,2344.104980 1541.541382,2343.481934 
	C1558.088623,2291.575195 1574.720459,2239.694824 1591.065063,2187.724365 
	C1594.105713,2178.056152 1595.987915,2168.023438 1599.043945,2157.843750 
	C1601.078247,2154.199219 1602.736450,2150.953857 1603.830688,2147.528564 
	C1630.402344,2064.350098 1656.913818,1981.152832 1683.436035,1897.958740 
	C1702.528076,1837.703857 1721.559570,1777.429810 1740.723633,1717.197998 
	C1796.298462,1542.529175 1851.927368,1367.877686 1907.532715,1193.218750 
	C1916.785889,1164.154175 1926.028564,1135.086304 1935.275757,1106.019775 
	C1944.725098,1076.317383 1954.175537,1046.615356 1963.622803,1016.912231 
	C1972.838013,987.938843 1982.047485,958.963562 1991.263550,929.990479 
	C2000.782715,900.064880 2010.418579,870.175659 2019.787231,840.203125 
	C2025.501709,821.921326 2030.095581,803.262268 2036.424194,785.204285 
	C2061.588623,713.400818 2110.134277,665.652100 2183.626953,644.192078 
	C2188.349609,642.813049 2193.435547,642.678467 2200.013428,641.757568 
	C2216.197754,640.710938 2230.713867,639.680725 2245.248047,639.122192 
	C2251.488525,638.882324 2257.766357,639.622131 2264.027344,639.916870 
z"/>
<path fill="#83368D" opacity="1.000000" stroke="none" 
	d="
M2754.428955,2660.892578 
	C2752.320068,2663.428467 2750.397705,2666.151123 2748.075684,2668.474121 
	C2644.281738,2772.316162 2540.454346,2876.125000 2436.615479,2979.922363 
	C2434.503906,2982.033447 2432.212891,2983.965088 2428.719727,2985.850586 
	C2425.766846,2983.298584 2423.534180,2981.090332 2422.524658,2978.419434 
	C2415.473389,2959.761963 2408.670898,2941.010010 2401.795898,2922.285889 
	C2389.648682,2889.204102 2377.607666,2856.082764 2365.337158,2823.046387 
	C2349.016602,2779.105713 2332.260254,2735.324951 2316.166748,2691.301514 
	C2298.486572,2642.937256 2281.346436,2594.375488 2263.970703,2545.899902 
	C2266.643311,2542.957031 2269.198730,2539.896973 2272.005615,2537.088379 
	C2346.815918,2462.234619 2421.659912,2387.414551 2496.452393,2312.542969 
	C2499.229492,2309.762695 2501.544189,2306.520264 2504.831055,2302.668457 
	C2506.676758,2301.116455 2508.077637,2300.618652 2508.808838,2299.627197 
	C2519.244873,2285.477051 2529.721924,2271.353271 2539.889893,2257.011230 
	C2543.694336,2251.644775 2546.728271,2245.731934 2550.689453,2239.697510 
	C2557.379395,2229.186035 2563.385010,2218.977783 2569.662354,2208.939209 
	C2572.077393,2205.077637 2575.110840,2201.602783 2578.494141,2198.319824 
	C2581.138672,2203.862061 2583.205811,2209.015381 2585.154053,2214.213379 
	C2593.084473,2235.368896 2601.041748,2256.514648 2608.871338,2277.707520 
	C2619.004883,2305.137451 2628.956055,2332.634521 2639.112061,2360.055908 
	C2653.651855,2399.314697 2668.353516,2438.513428 2682.894287,2477.771729 
	C2693.050781,2505.192871 2703.011475,2532.686523 2713.135498,2560.119629 
	C2723.603760,2588.485107 2734.308350,2616.764648 2744.569580,2645.204590 
	C2746.769043,2651.301025 2749.444336,2656.725098 2754.428955,2660.892578 
z"/>
<path fill="#8E3088" opacity="1.000000" stroke="none" 
	d="
M2754.999023,2660.507324 
	C2749.444336,2656.725098 2746.769043,2651.301025 2744.569580,2645.204590 
	C2734.308350,2616.764648 2723.603760,2588.485107 2713.135498,2560.119629 
	C2703.011475,2532.686523 2693.050781,2505.192871 2682.894287,2477.771729 
	C2668.353516,2438.513428 2653.651855,2399.314697 2639.112061,2360.055908 
	C2628.956055,2332.634521 2619.004883,2305.137451 2608.871338,2277.707520 
	C2601.041748,2256.514648 2593.084473,2235.368896 2585.154053,2214.213379 
	C2583.205811,2209.015381 2581.138672,2203.862061 2578.629150,2197.615479 
	C2579.382812,2193.825684 2580.588135,2191.086426 2581.891113,2188.394531 
	C2593.333252,2164.750977 2605.501709,2141.428467 2616.093018,2117.410156 
	C2635.543213,2073.303223 2647.496582,2026.941650 2651.564453,1978.987305 
	C2654.093018,1949.180542 2652.467041,1919.182129 2644.949463,1889.860474 
	C2637.785400,1861.916870 2626.869629,1835.626587 2610.948730,1811.482300 
	C2608.426025,1807.656128 2605.079346,1804.049194 2606.020508,1798.829712 
	C2636.466797,1829.151611 2666.935791,1859.450562 2697.353271,1889.801514 
	C2731.073975,1923.448853 2764.704590,1957.187134 2798.451660,1990.808228 
	C2852.489990,2044.645386 2906.644043,2098.366455 2960.636719,2152.249756 
	C2977.948242,2169.526123 2992.626465,2188.820801 3003.520020,2210.844238 
	C3015.775879,2235.621826 3022.788086,2261.706299 3024.374756,2289.393555 
	C3028.081543,2354.069580 3005.953125,2409.052002 2961.366699,2454.986084 
	C2920.999756,2496.573486 2879.586670,2537.148193 2838.494629,2578.028320 
	C2823.168945,2593.275146 2807.302246,2607.978027 2791.957764,2623.207031 
	C2782.525879,2632.567871 2773.667480,2642.503906 2764.440186,2652.074463 
	C2761.675293,2654.942383 2758.536621,2657.449707 2754.999023,2660.507324 
z"/>
<path fill="#763D92" opacity="1.000000" stroke="none" 
	d="
M2263.374756,2546.204834 
	C2281.346436,2594.375488 2298.486572,2642.937256 2316.166748,2691.301514 
	C2332.260254,2735.324951 2349.016602,2779.105713 2365.337158,2823.046387 
	C2377.607666,2856.082764 2389.648682,2889.204102 2401.795898,2922.285889 
	C2408.670898,2941.010010 2415.473389,2959.761963 2422.524658,2978.419434 
	C2423.534180,2981.090332 2425.766846,2983.298584 2428.117920,2986.106445 
	C2424.545410,2990.665039 2420.254639,2994.804199 2416.037354,2999.017090 
	C2393.879395,3021.151123 2371.653320,3043.218262 2349.626953,3065.482910 
	C2337.230713,3078.013428 2325.322754,3091.026855 2312.935791,3103.566895 
	C2280.606934,3136.295410 2241.817383,3157.562744 2196.482666,3165.059570 
	C2131.175537,3175.859619 2072.150635,3160.572021 2020.931763,3118.054199 
	C1979.447144,3083.616943 1954.711670,3039.157715 1946.733887,2986.107422 
	C1937.445312,2924.341553 1952.914795,2868.576660 1991.554077,2819.412842 
	C1996.274902,2813.406006 2001.437866,2807.691162 2006.838745,2802.282715 
	C2090.417236,2718.587891 2174.068359,2634.965332 2257.709229,2551.332520 
	C2259.358154,2549.683838 2261.087158,2548.115479 2263.374756,2546.204834 
z"/>
<path fill="#7EDBB9" opacity="1.000000" stroke="none" 
	d="
M1015.322754,1839.412720 
	C997.566772,1821.876831 979.746216,1804.405762 962.067688,1786.792358 
	C917.713379,1742.601440 873.419739,1698.349609 829.108459,1654.115723 
	C799.403931,1624.463013 778.588013,1589.637085 770.225342,1548.328491 
	C756.791748,1481.971802 772.314209,1422.286987 813.930847,1369.206055 
	C818.439453,1363.455444 823.396301,1358.005127 828.553772,1352.822021 
	C883.989807,1297.110962 939.501465,1241.474976 995.014099,1185.840332 
	C1000.185181,1180.657837 1005.505310,1175.624023 1012.181274,1170.315186 
	C1015.038757,1171.621094 1017.273499,1172.929565 1017.720581,1174.691650 
	C1018.436707,1177.514038 1017.995911,1180.636963 1017.995972,1183.632935 
	C1018.000427,1359.100342 1018.000000,1534.567871 1018.000000,1710.035278 
	C1018.000000,1748.325195 1018.094299,1786.615479 1017.881531,1824.904297 
	C1017.854614,1829.744995 1016.215149,1834.576782 1015.322754,1839.412720 
z"/>
<path fill="#73C7B8" opacity="1.000000" stroke="none" 
	d="
M1075.970581,1105.987671 
	C1077.213379,1104.466919 1078.336792,1102.827271 1079.716431,1101.442993 
	C1108.020142,1073.044800 1136.353149,1044.675659 1165.358521,1016.915283 
	C1166.691162,1023.778931 1167.912231,1030.027710 1167.916870,1036.277466 
	C1168.024414,1181.475098 1168.000000,1326.672852 1168.000000,1471.870605 
	C1168.000000,1541.805298 1167.963745,1611.740112 1168.091431,1681.674561 
	C1168.098999,1685.804565 1169.425781,1689.932129 1170.098389,1694.860596 
	C1169.121216,1699.517578 1168.422363,1703.451904 1167.203613,1707.218018 
	C1163.210205,1719.559570 1158.802490,1731.770142 1154.962158,1744.157715 
	C1145.369995,1775.100098 1140.241699,1806.914917 1138.329346,1839.155396 
	C1137.566528,1852.015747 1139.396606,1865.018188 1139.819946,1877.963379 
	C1140.356445,1894.369507 1143.850952,1910.230835 1148.223145,1926.713501 
	C1154.655640,1949.557983 1163.858887,1970.395996 1175.894531,1990.000366 
	C1179.999268,1996.686401 1183.835938,2003.537109 1187.795044,2010.312622 
	C1185.939087,2009.060913 1183.823730,2008.069824 1182.265015,2006.519287 
	C1147.684326,1972.113403 1113.165161,1937.645752 1079.131104,1902.330688 
	C1083.786621,1898.091797 1081.913940,1893.415771 1081.915405,1889.354614 
	C1082.009399,1632.569092 1082.000366,1375.783691 1081.996826,1118.998169 
	C1081.996826,1116.334229 1081.940063,1113.670410 1081.925537,1111.006470 
	C1081.903687,1106.996338 1079.333740,1106.025024 1075.970581,1105.987671 
z"/>
<path fill="#528AB6" opacity="1.000000" stroke="none" 
	d="
M1187.842651,2010.240234 
	C1183.835938,2003.537109 1179.999268,1996.686401 1175.894531,1990.000366 
	C1163.858887,1970.395996 1154.655640,1949.557983 1148.982666,1926.720703 
	C1153.649414,1924.505737 1158.260010,1923.877075 1161.460938,1921.415527 
	C1175.389771,1910.704590 1189.733521,1900.322632 1202.389771,1888.214844 
	C1223.270264,1868.238892 1243.731689,1847.838379 1262.136230,1825.345581 
	C1285.814087,1796.408447 1306.472778,1765.577271 1324.401733,1732.911743 
	C1345.286133,1694.861694 1361.446289,1654.769897 1373.802368,1613.157471 
	C1376.151245,1605.247070 1376.484741,1604.928223 1385.566772,1604.143066 
	C1386.621704,1604.934448 1387.791870,1605.610718 1388.714722,1606.534058 
	C1424.820923,1642.655518 1460.904419,1678.799438 1496.517090,1715.508301 
	C1490.521484,1715.716431 1487.774536,1718.665771 1485.736694,1723.570557 
	C1480.256714,1736.759521 1474.737305,1749.962158 1468.470459,1762.786499 
	C1460.297119,1779.512695 1452.248047,1796.401611 1442.600464,1812.281616 
	C1427.441284,1837.233643 1411.613403,1861.835571 1394.904297,1885.772949 
	C1379.915405,1907.245850 1363.316650,1927.597290 1344.786255,1946.227661 
	C1327.712402,1963.393555 1311.216309,1981.220459 1293.186157,1997.323730 
	C1275.917847,2012.746826 1257.024902,2026.354370 1238.797607,2040.698242 
	C1234.488403,2044.089233 1230.963501,2047.896362 1230.103027,2053.563477 
	C1216.313232,2040.128174 1202.523438,2026.692749 1188.704102,2012.386963 
	C1188.368774,2011.030029 1188.062744,2010.543701 1187.756836,2010.057251 
	C1187.756836,2010.057251 1187.890259,2010.167847 1187.842651,2010.240234 
z"/>
<path fill="#922072" opacity="1.000000" stroke="none" 
	d="
M2114.903809,1915.635010 
	C2134.199219,1852.397583 2154.092041,1789.352051 2174.124268,1726.350830 
	C2201.817383,1639.258301 2229.615479,1552.199463 2257.782227,1464.499512 
	C2267.234375,1469.510376 2276.272949,1475.147583 2285.663330,1482.286621 
	C2286.010254,1677.572021 2286.005371,1871.355835 2285.996826,2065.139648 
	C2285.996826,2068.468994 2286.403076,2071.889404 2285.754883,2075.092285 
	C2285.383789,2076.925049 2283.263672,2078.403809 2281.930908,2080.041992 
	C2279.218506,2077.601562 2276.389648,2075.277588 2273.811035,2072.703125 
	C2224.048096,2023.026367 2174.324707,1973.310181 2124.548828,1923.646240 
	C2121.748047,1920.851685 2118.567383,1918.437622 2114.903809,1915.635010 
z"/>
<path fill="#5996B6" opacity="1.000000" stroke="none" 
	d="
M1573.297974,1214.717285 
	C1543.613892,1244.643921 1513.934570,1274.575195 1484.237549,1304.489014 
	C1481.665405,1307.079956 1478.976562,1309.554810 1475.040283,1311.761475 
	C1473.159058,1306.915161 1472.074707,1302.391357 1472.072754,1297.866943 
	C1471.987915,1109.451294 1472.000244,921.035706 1471.999146,732.620117 
	C1471.999023,729.624207 1472.516235,726.501038 1471.838501,723.665161 
	C1471.029907,720.281555 1469.191528,717.144104 1467.799316,713.899963 
	C1494.415771,684.163696 1525.905884,661.751526 1565.382080,650.357910 
	C1570.104614,656.281494 1570.036133,662.246033 1570.034668,668.301086 
	C1569.991943,845.161560 1569.999634,1022.022095 1570.001221,1198.882568 
	C1570.001221,1201.880127 1569.609375,1204.957031 1570.163818,1207.850586 
	C1570.623779,1210.251587 1572.210449,1212.436646 1573.297974,1214.717285 
z"/>
<path fill="#548DB6" opacity="1.000000" stroke="none" 
	d="
M1573.836670,1214.400635 
	C1572.210449,1212.436646 1570.623779,1210.251587 1570.163818,1207.850586 
	C1569.609375,1204.957031 1570.001221,1201.880127 1570.001221,1198.882568 
	C1569.999634,1022.022095 1569.991943,845.161560 1570.034668,668.301086 
	C1570.036133,662.246033 1570.104614,656.281494 1566.145020,650.286133 
	C1577.949341,646.535767 1589.942505,642.555908 1602.255249,640.717529 
	C1624.285767,637.428101 1646.457397,637.714783 1669.697510,642.578003 
	C1671.676758,643.359131 1672.404663,643.561707 1673.132568,643.764282 
	C1673.781372,643.684448 1674.430176,643.604614 1675.572021,644.582397 
	C1676.710083,650.890259 1677.915039,656.140076 1677.918335,661.390686 
	C1678.012573,810.901001 1677.985718,960.411377 1677.978516,1109.921753 
	C1677.419312,1110.731323 1676.969971,1111.650757 1676.285400,1112.334839 
	C1642.328125,1146.263916 1608.350708,1180.172729 1573.836670,1214.400635 
z"/>
<path fill="#5A9AB6" opacity="1.000000" stroke="none" 
	d="
M1230.414307,2054.175781 
	C1230.963501,2047.896362 1234.488403,2044.089233 1238.797607,2040.698242 
	C1257.024902,2026.354370 1275.917847,2012.746826 1293.186157,1997.323730 
	C1311.216309,1981.220459 1327.712402,1963.393555 1344.786255,1946.227661 
	C1363.316650,1927.597290 1379.915405,1907.245850 1394.904297,1885.772949 
	C1411.613403,1861.835571 1427.441284,1837.233643 1442.600464,1812.281616 
	C1452.248047,1796.401611 1460.297119,1779.512695 1468.470459,1762.786499 
	C1474.737305,1749.962158 1480.256714,1736.759521 1485.736694,1723.570557 
	C1487.774536,1718.665771 1490.521484,1715.716431 1496.784912,1716.095947 
	C1499.514160,1717.846069 1501.614258,1719.463989 1503.472412,1721.323853 
	C1532.955200,1750.831177 1562.406982,1780.369507 1591.722656,1811.102051 
	C1587.027588,1814.327515 1584.761963,1818.236938 1582.690063,1822.514771 
	C1561.639893,1865.976562 1537.910278,1907.947510 1509.255615,1946.831543 
	C1489.204712,1974.040527 1468.161011,2000.600342 1446.217407,2026.303101 
	C1431.833984,2043.150879 1415.033936,2057.933105 1399.349243,2073.673096 
	C1375.868774,2097.236572 1350.037842,2118.034912 1323.720581,2138.279297 
	C1322.061157,2139.555664 1321.252808,2141.938232 1320.048340,2143.806152 
	C1317.357178,2141.379883 1314.560791,2139.059570 1311.991333,2136.510742 
	C1287.289795,2112.007324 1262.612549,2087.479736 1237.973511,2062.913330 
	C1235.407715,2060.355225 1233.134399,2057.503662 1230.414307,2054.175781 
z"/>
<path fill="#891E6E" opacity="1.000000" stroke="none" 
	d="
M2282.229492,2080.637695 
	C2283.263672,2078.403809 2285.383789,2076.925049 2285.754883,2075.092285 
	C2286.403076,2071.889404 2285.996826,2068.468994 2285.996826,2065.139648 
	C2286.005371,1871.355835 2286.010254,1677.572021 2286.033691,1482.841797 
	C2292.553955,1486.943237 2299.629395,1491.408325 2305.456299,1497.142456 
	C2327.606201,1518.940674 2349.352539,1541.148682 2371.631836,1564.563965 
	C2375.959229,1576.065552 2376.069092,1586.638672 2376.063965,1597.343872 
	C2375.975342,1783.317505 2376.000488,1969.291260 2375.996582,2155.264893 
	C2375.996582,2158.597168 2376.408447,2162.026855 2375.737793,2165.224121 
	C2375.355469,2167.046631 2373.168701,2168.490723 2371.794434,2170.105469 
	C2367.025879,2165.551758 2362.163818,2161.091553 2357.504150,2156.428711 
	C2332.484375,2131.391357 2307.515137,2106.303711 2282.229492,2080.637695 
z"/>
<path fill="#4F84B5" opacity="1.000000" stroke="none" 
	d="
M1678.582275,1109.648438 
	C1677.985718,960.411377 1678.012573,810.901001 1677.918335,661.390686 
	C1677.915039,656.140076 1676.710083,650.890259 1676.031006,644.791870 
	C1696.125000,646.522339 1714.651855,654.010864 1732.160889,663.695312 
	C1792.981445,697.335938 1831.052002,748.206055 1842.928467,816.824463 
	C1853.973511,880.638550 1838.302368,938.412170 1797.779175,989.127319 
	C1791.972168,996.394775 1785.469604,1003.152344 1778.893433,1009.751526 
	C1745.729736,1043.031128 1712.434814,1076.180054 1678.582275,1109.648438 
z"/>
<path fill="#5EA0B7" opacity="1.000000" stroke="none" 
	d="
M1467.188477,714.158325 
	C1469.191528,717.144104 1471.029907,720.281555 1471.838501,723.665161 
	C1472.516235,726.501038 1471.999023,729.624207 1471.999146,732.620117 
	C1472.000244,921.035706 1471.987915,1109.451294 1472.072754,1297.866943 
	C1472.074707,1302.391357 1473.159058,1306.915161 1474.456055,1312.027588 
	C1470.930054,1317.162964 1466.813843,1321.837036 1462.422485,1326.236450 
	C1436.717163,1351.988647 1410.947388,1377.676758 1384.592773,1402.721924 
	C1383.990723,1209.224365 1384.011719,1016.391296 1383.913574,823.558289 
	C1383.910889,818.314331 1382.871460,813.018860 1381.781006,807.860291 
	C1381.465454,806.367310 1379.285278,805.268433 1377.959839,803.988892 
	C1380.374268,801.298279 1382.672852,798.492126 1385.220947,795.934753 
	C1412.317139,768.739319 1439.452881,741.583435 1467.188477,714.158325 
z"/>
<path fill="#831E6A" opacity="1.000000" stroke="none" 
	d="
M2372.143555,2170.675293 
	C2373.168701,2168.490723 2375.355469,2167.046631 2375.737793,2165.224121 
	C2376.408447,2162.026855 2375.996582,2158.597168 2375.996582,2155.264893 
	C2376.000488,1969.291260 2375.975342,1783.317505 2376.063965,1597.343872 
	C2376.069092,1586.638672 2375.959229,1576.065552 2371.944336,1565.161865 
	C2374.129639,1566.300415 2376.552979,1568.035645 2378.613525,1570.127686 
	C2402.957764,1594.843384 2427.247559,1619.612549 2451.838135,1645.710205 
	C2452.911865,1649.171387 2453.164062,1651.781006 2454.579590,1653.322876 
	C2460.597168,1659.877808 2462.151123,1667.383545 2462.142334,1676.166382 
	C2461.955322,1865.797974 2462.002930,2055.429688 2461.982910,2245.061523 
	C2461.982422,2249.721680 2461.727783,2254.382080 2461.591553,2259.042236 
	C2459.736816,2257.680176 2457.668701,2256.531982 2456.059326,2254.924316 
	C2428.170410,2227.064941 2400.337891,2199.148926 2372.143555,2170.675293 
z"/>
<path fill="#4C7EB5" opacity="1.000000" stroke="none" 
	d="
M1385.295044,1603.553467 
	C1376.484741,1604.928223 1376.151245,1605.247070 1373.802368,1613.157471 
	C1361.446289,1654.769897 1345.286133,1694.861694 1324.401733,1732.911743 
	C1306.472778,1765.577271 1285.814087,1796.408447 1262.136230,1825.345581 
	C1243.731689,1847.838379 1223.270264,1868.238892 1202.389771,1888.214844 
	C1189.733521,1900.322632 1175.389771,1910.704590 1161.460938,1921.415527 
	C1158.260010,1923.877075 1153.649414,1924.505737 1148.927979,1925.970581 
	C1143.850952,1910.230835 1140.356445,1894.369507 1139.819946,1877.963379 
	C1139.396606,1865.018188 1137.566528,1852.015747 1138.329346,1839.155396 
	C1140.241699,1806.914917 1145.369995,1775.100098 1154.962158,1744.157715 
	C1158.802490,1731.770142 1163.210205,1719.559570 1167.203613,1707.218018 
	C1168.422363,1703.451904 1169.121216,1699.517578 1170.701660,1694.520874 
	C1172.835449,1690.846436 1174.562378,1688.418945 1175.772583,1685.756592 
	C1179.881226,1676.718018 1183.241943,1667.294312 1187.909546,1658.563599 
	C1201.485596,1633.169800 1215.489990,1608.003418 1229.471802,1582.828735 
	C1234.113647,1574.471191 1239.197021,1566.359009 1244.647827,1557.770752 
	C1251.905762,1548.009644 1258.377686,1538.447998 1265.345947,1529.263062 
	C1271.886353,1520.642090 1278.951660,1512.419189 1285.786011,1504.020996 
	C1303.206787,1521.265747 1320.673584,1538.464355 1338.034668,1555.768799 
	C1353.757446,1571.440430 1369.364990,1587.227539 1385.295044,1603.553467 
z"/>
<path fill="#6CBAB8" opacity="1.000000" stroke="none" 
	d="
M1244.078491,1558.134644 
	C1239.197021,1566.359009 1234.113647,1574.471191 1229.471802,1582.828735 
	C1215.489990,1608.003418 1201.485596,1633.169800 1187.909546,1658.563599 
	C1183.241943,1667.294312 1179.881226,1676.718018 1175.772583,1685.756592 
	C1174.562378,1688.418945 1172.835449,1690.846436 1170.742065,1693.721191 
	C1169.425781,1689.932129 1168.098999,1685.804565 1168.091431,1681.674561 
	C1167.963745,1611.740112 1168.000000,1541.805298 1168.000000,1471.870605 
	C1168.000000,1326.672852 1168.024414,1181.475098 1167.916870,1036.277466 
	C1167.912231,1030.027710 1166.691162,1023.778931 1165.989990,1016.674255 
	C1182.461182,999.099976 1198.957520,982.359558 1215.507080,965.671875 
	C1223.204956,957.909790 1231.005859,950.250061 1240.093750,942.473999 
	C1246.232910,949.315552 1246.001831,957.238525 1246.001709,965.120178 
	C1245.999512,1151.546265 1246.033203,1337.972290 1245.917725,1524.398315 
	C1245.910767,1535.644165 1244.718994,1546.889160 1244.078491,1558.134644 
z"/>
<path fill="#7D1D67" opacity="1.000000" stroke="none" 
	d="
M2461.792725,2259.622803 
	C2461.727783,2254.382080 2461.982422,2249.721680 2461.982910,2245.061523 
	C2462.002930,2055.429688 2461.955322,1865.797974 2462.142334,1676.166382 
	C2462.151123,1667.383545 2460.597168,1659.877808 2454.579590,1653.322876 
	C2453.164062,1651.781006 2452.911865,1649.171387 2452.176758,1646.268799 
	C2464.565430,1657.602539 2476.987061,1669.634644 2489.218018,1681.857544 
	C2508.046875,1700.674194 2526.745361,1719.621704 2545.779053,1740.052246 
	C2546.039551,1903.957153 2546.019531,2066.323242 2546.007324,2228.689209 
	C2546.007324,2230.683350 2545.629150,2232.861084 2546.297607,2234.623047 
	C2547.059570,2236.631592 2548.799316,2238.269287 2550.113770,2240.068359 
	C2546.728271,2245.731934 2543.694336,2251.644775 2539.889893,2257.011230 
	C2529.721924,2271.353271 2519.244873,2285.477051 2508.808838,2299.627197 
	C2508.077637,2300.618652 2506.676758,2301.116455 2504.931396,2301.979492 
	C2490.181641,2288.144531 2476.087646,2274.173828 2461.792725,2259.622803 
z"/>
<path fill="#79D3B9" opacity="1.000000" stroke="none" 
	d="
M1075.364258,1106.263306 
	C1079.333740,1106.025024 1081.903687,1106.996338 1081.925537,1111.006470 
	C1081.940063,1113.670410 1081.996826,1116.334229 1081.996826,1118.998169 
	C1082.000366,1375.783691 1082.009399,1632.569092 1081.915405,1889.354614 
	C1081.913940,1893.415771 1083.786621,1898.091797 1078.877441,1901.718262 
	C1062.755737,1886.894409 1047.363892,1871.844971 1032.024536,1856.741943 
	C1026.593506,1851.394653 1021.290588,1845.917358 1015.625977,1839.956055 
	C1016.215149,1834.576782 1017.854614,1829.744995 1017.881531,1824.904297 
	C1018.094299,1786.615479 1018.000000,1748.325195 1018.000000,1710.035278 
	C1018.000000,1534.567871 1018.000427,1359.100342 1017.995972,1183.632935 
	C1017.995911,1180.636963 1018.436707,1177.514038 1017.720581,1174.691650 
	C1017.273499,1172.929565 1015.038757,1171.621094 1012.791260,1170.044189 
	C1022.819580,1158.872681 1033.607056,1147.711060 1044.522339,1136.675903 
	C1054.529175,1126.559326 1064.673950,1116.579224 1075.364258,1106.263306 
z"/>
<path fill="#63AAB7" opacity="1.000000" stroke="none" 
	d="
M1320.310791,2144.430420 
	C1321.252808,2141.938232 1322.061157,2139.555664 1323.720581,2138.279297 
	C1350.037842,2118.034912 1375.868774,2097.236572 1399.349243,2073.673096 
	C1415.033936,2057.933105 1431.833984,2043.150879 1446.217407,2026.303101 
	C1468.161011,2000.600342 1489.204712,1974.040527 1509.255615,1946.831543 
	C1537.910278,1907.947510 1561.639893,1865.976562 1582.690063,1822.514771 
	C1584.761963,1818.236938 1587.027588,1814.327515 1591.996826,1811.682129 
	C1600.077759,1818.455200 1607.844360,1825.746338 1615.384644,1833.264160 
	C1634.262817,1852.086548 1653.038452,1871.011597 1671.717651,1891.095215 
	C1668.931396,1895.115967 1665.662842,1897.571289 1663.744873,1900.823242 
	C1656.650513,1912.851685 1650.506958,1925.460693 1643.081055,1937.269775 
	C1627.511475,1962.028687 1612.293701,1987.096313 1595.190918,2010.780396 
	C1575.973999,2037.392700 1555.873901,2063.527588 1534.248047,2088.195557 
	C1512.117432,2113.439453 1487.675049,2136.656494 1464.236328,2160.752930 
	C1463.075684,2161.946045 1461.886963,2163.121826 1460.623657,2164.203369 
	C1447.264648,2175.637695 1434.004883,2187.191650 1420.473022,2198.417969 
	C1412.060913,2205.396729 1403.229370,2211.869873 1394.586182,2218.570068 
	C1381.058838,2205.420166 1367.429565,2192.373047 1354.035156,2179.089111 
	C1342.739624,2167.886963 1331.716797,2156.409912 1320.310791,2144.430420 
z"/>
<path fill="#63AAB7" opacity="1.000000" stroke="none" 
	d="
M1377.358887,804.272522 
	C1379.285278,805.268433 1381.465454,806.367310 1381.781006,807.860291 
	C1382.871460,813.018860 1383.910889,818.314331 1383.913574,823.558289 
	C1384.011719,1016.391296 1383.990723,1209.224365 1383.985352,1402.988770 
	C1374.271118,1413.903076 1364.635986,1423.964111 1354.825073,1433.850342 
	C1341.017822,1447.763672 1327.080200,1461.547485 1312.455444,1474.833618 
	C1311.141602,1469.362061 1310.076904,1464.443970 1310.072632,1459.525024 
	C1309.978149,1348.978882 1310.000000,1238.432739 1310.000000,1127.886475 
	C1310.000000,1048.639526 1310.049438,969.392395 1309.886719,890.145813 
	C1309.876099,884.973022 1308.238525,879.803589 1307.357666,874.632568 
	C1313.774658,867.929749 1320.083008,861.118713 1326.630005,854.545349 
	C1343.282349,837.825623 1360.041626,821.212158 1377.358887,804.272522 
z"/>
<path fill="#67B1B7" opacity="1.000000" stroke="none" 
	d="
M1306.753540,874.974731 
	C1308.238525,879.803589 1309.876099,884.973022 1309.886719,890.145813 
	C1310.049438,969.392395 1310.000000,1048.639526 1310.000000,1127.886475 
	C1310.000000,1238.432739 1309.978149,1348.978882 1310.072632,1459.525024 
	C1310.076904,1464.443970 1311.141602,1469.362061 1311.847656,1475.099609 
	C1303.411865,1484.860962 1294.841064,1493.803345 1286.028076,1503.383301 
	C1278.951660,1512.419189 1271.886353,1520.642090 1265.345947,1529.263062 
	C1258.377686,1538.447998 1251.905762,1548.009644 1244.647827,1557.770752 
	C1244.718994,1546.889160 1245.910767,1535.644165 1245.917725,1524.398315 
	C1246.033203,1337.972290 1245.999512,1151.546265 1246.001709,965.120178 
	C1246.001831,957.238525 1246.232910,949.315552 1240.697632,942.193542 
	C1246.810547,934.869324 1253.546631,927.649292 1260.517700,920.663635 
	C1275.664673,905.484619 1290.931519,890.425293 1306.753540,874.974731 
z"/>
<path fill="#761C64" opacity="1.000000" stroke="none" 
	d="
M2550.689453,2239.697510 
	C2548.799316,2238.269287 2547.059570,2236.631592 2546.297607,2234.623047 
	C2545.629150,2232.861084 2546.007324,2230.683350 2546.007324,2228.689209 
	C2546.019531,2066.323242 2546.039551,1903.957153 2546.108887,1740.620605 
	C2558.446289,1751.658447 2570.752686,1763.647461 2583.012939,1775.683594 
	C2588.630371,1781.198120 2594.157471,1786.805054 2600.217773,1793.576294 
	C2601.483398,1795.179688 2602.256836,1795.577026 2603.030029,1795.974243 
	C2603.903076,1796.686523 2604.775879,1797.398804 2605.834717,1798.470459 
	C2605.079346,1804.049194 2608.426025,1807.656128 2610.948730,1811.482300 
	C2626.869629,1835.626587 2637.785400,1861.916870 2644.949463,1889.860474 
	C2652.467041,1919.182129 2654.093018,1949.180542 2651.564453,1978.987305 
	C2647.496582,2026.941650 2635.543213,2073.303223 2616.093018,2117.410156 
	C2605.501709,2141.428467 2593.333252,2164.750977 2581.891113,2188.394531 
	C2580.588135,2191.086426 2579.382812,2193.825684 2577.997070,2197.247070 
	C2575.110840,2201.602783 2572.077393,2205.077637 2569.662354,2208.939209 
	C2563.385010,2218.977783 2557.379395,2229.186035 2550.689453,2239.697510 
z"/>
<path fill="#6CBAB8" opacity="1.000000" stroke="none" 
	d="
M1394.910645,2219.190918 
	C1403.229370,2211.869873 1412.060913,2205.396729 1420.473022,2198.417969 
	C1434.004883,2187.191650 1447.264648,2175.637695 1460.623657,2164.203369 
	C1461.886963,2163.121826 1463.075684,2161.946045 1464.236328,2160.752930 
	C1487.675049,2136.656494 1512.117432,2113.439453 1534.248047,2088.195557 
	C1555.873901,2063.527588 1575.973999,2037.392700 1595.190918,2010.780396 
	C1612.293701,1987.096313 1627.511475,1962.028687 1643.081055,1937.269775 
	C1650.506958,1925.460693 1656.650513,1912.851685 1663.744873,1900.823242 
	C1665.662842,1897.571289 1668.931396,1895.115967 1671.991943,1891.674316 
	C1675.630737,1893.376831 1678.857544,1895.699829 1682.760254,1897.990845 
	C1656.913818,1981.152832 1630.402344,2064.350098 1603.830688,2147.528564 
	C1602.736450,2150.953857 1601.078247,2154.199219 1598.327515,2157.879395 
	C1594.567017,2159.900879 1591.804565,2161.230957 1589.827271,2163.308350 
	C1584.807617,2168.581787 1580.461304,2174.518311 1575.270508,2179.602783 
	C1559.621948,2194.930908 1544.032349,2210.347656 1527.798828,2225.043945 
	C1507.918335,2243.041504 1487.350220,2260.278320 1467.250854,2278.038086 
	C1464.924805,2280.093262 1463.690674,2283.384277 1461.950195,2286.102295 
	C1450.118652,2274.618408 1438.186646,2263.235596 1426.485352,2251.620605 
	C1415.937378,2241.150146 1405.641968,2230.424805 1394.910645,2219.190918 
z"/>
<path fill="#73C7B8" opacity="1.000000" stroke="none" 
	d="
M1462.217529,2286.712158 
	C1463.690674,2283.384277 1464.924805,2280.093262 1467.250854,2278.038086 
	C1487.350220,2260.278320 1507.918335,2243.041504 1527.798828,2225.043945 
	C1544.032349,2210.347656 1559.621948,2194.930908 1575.270508,2179.602783 
	C1580.461304,2174.518311 1584.807617,2168.581787 1589.827271,2163.308350 
	C1591.804565,2161.230957 1594.567017,2159.900879 1597.688477,2158.194824 
	C1595.987915,2168.023438 1594.105713,2178.056152 1591.065063,2187.724365 
	C1574.720459,2239.694824 1558.088623,2291.575195 1541.541382,2343.481934 
	C1541.342896,2344.104980 1540.952026,2344.666748 1540.100830,2345.776855 
	C1524.691650,2341.145020 1511.801880,2332.419189 1499.995483,2322.480957 
	C1486.903320,2311.460693 1474.939697,2299.099365 1462.217529,2286.712158 
z"/>
<path fill="#7EDBB9" opacity="1.000000" stroke="none" 
	d="
M2263.289062,639.549316 
	C2257.766357,639.622131 2251.488525,638.882324 2245.248047,639.122192 
	C2230.713867,639.680725 2216.197754,640.710938 2200.828613,641.547180 
	C2203.677734,640.632019 2207.365479,638.971130 2211.068604,638.935547 
	C2228.227051,638.770691 2245.389404,639.057068 2263.289062,639.549316 
z"/>
<path fill="#79D3B9" opacity="1.000000" stroke="none" 
	d="
M1540.520874,3164.428711 
	C1546.491577,3164.426758 1552.990845,3164.713135 1560.005371,3165.349121 
	C1554.030273,3165.371582 1547.539795,3165.044189 1540.520874,3164.428711 
z"/>
<path fill="#79D3B9" opacity="1.000000" stroke="none" 
	d="
M1570.191162,3165.877686 
	C1575.242554,3165.024902 1580.986938,3164.407959 1587.372803,3163.989014 
	C1582.304199,3164.829102 1576.594238,3165.471436 1570.191162,3165.877686 
z"/>
<path fill="#8E3088" opacity="1.000000" stroke="none" 
	d="
M2602.612793,1795.477783 
	C2602.256836,1795.577026 2601.483398,1795.179688 2600.356445,1794.227417 
	C2600.733643,1794.108643 2601.464600,1794.544922 2602.612793,1795.477783 
z"/>
<path fill="#73C7B8" opacity="1.000000" stroke="none" 
	d="
M1187.626709,2010.614014 
	C1188.062744,2010.543701 1188.368774,2011.030029 1188.447754,2011.786133 
	C1187.979492,2011.760864 1187.738037,2011.465942 1187.626709,2010.614014 
z"/>
<path fill="#4F84B5" opacity="1.000000" stroke="none" 
	d="
M1672.759277,643.298096 
	C1672.404663,643.561707 1671.676758,643.359131 1670.519287,642.786560 
	C1670.855103,642.554993 1671.620483,642.693481 1672.759277,643.298096 
z"/>
</svg>